# xmcd CD database file
#
# Track frame offsets:
#	150
#	18623
#	36833
#	55303
#
# Disc length: 976 seconds
#
# Revision: 0
# Processed by: cddbd v1.5.1PL0 Copyright (c) Steve Scherf et al.
# Submitted via: CDex 1.51
#
DISCID=2f03ce04
DTITLE=渡辺明乃、豊口めぐみ、高橋美佳子、田中理恵 - 不思議Tokyoシンデレラ
DYEAR=2004
DGENRE=Pop
TTITLE0=不思議Tokyoシンデレラ
TTITLE1=太陽を抱きしめろ
TTITLE2=不思議Tokyoシンデレラ(Off Vocal)
TTITLE3=太陽を抱きしめろ(Off Vocal)
EXTD=YEAR: 2004
EXTT0=
EXTT1=
EXTT2=
EXTT3=
PLAYORDER=
